<svg xmlns="http://www.w3.org/2000/svg" viewBox="0 0 80.83 104.12"><defs><style>.cls-1{fill:#0e1133;}.cls-2{fill:#2b4eff;}</style></defs><g id="Layer_2" data-name="Layer 2"><g id="Layer_1-2" data-name="Layer 1"><path class="cls-1" d="M30.9,87.8a.78.78,0,0,1,.24-.78.8.8,0,0,1,.61-.17,2,2,0,0,1,.38.18,3.2,3.2,0,0,1,1,1.35c.07.13.17.32.28.55s.09.18.13.28a3.29,3.29,0,0,1,.24.77,3,3,0,0,0,.18-.52,4.46,4.46,0,0,0,.11-1.22V88a.68.68,0,0,1,0-.25.58.58,0,0,1,.09-.22L34.5,87a.85.85,0,0,1,1-.45.78.78,0,0,1,.37.26l.19.29.1.38v.56a.93.93,0,0,0-.28-.4.86.86,0,0,0-.31-.15.76.76,0,0,0-.27,0,.81.81,0,0,0-.28.13,1.24,1.24,0,0,0-.19.16.93.93,0,0,0-.23.44c0,.08,0,.22,0,.4-.1,1-.07,1.39-.19,2.17,0,.12-.05.3-.1.52l-.09.19h-.29l-.09-.19c-.13-.24-.25-.49-.38-.75s-.33-.7-.47-1l-.19-.29a.74.74,0,0,0-.4-.35.81.81,0,0,0-.45,0,1.11,1.11,0,0,1-.48-.24,1.24,1.24,0,0,1-.28-.32,1.08,1.08,0,0,1-.15-.27A.94.94,0,0,1,30.9,87.8Z"/><path class="cls-1" d="M31.32,26.37C4.68,32.58-6.39,62.27,7.6,85.18A29,29,0,0,0,11,89.73a32.73,32.73,0,0,0,8.91,7.06c0,.11.11.1,0,.11a27.78,27.78,0,0,1-9.83-6.4C1.55,82.18-1.44,69.27.63,57.73A37.49,37.49,0,0,1,11,37,39.28,39.28,0,0,1,31.31,26.16C31.41,26.16,31.42,26.26,31.32,26.37Z"/><path class="cls-1" d="M46.13,71.93h-.07l-2,.85-2.12.91-.22.24a.7.7,0,0,0-.11.37l2-.92,2.11-.85.29-.22A.7.7,0,0,0,46.13,71.93Z"/><path class="cls-1" d="M60.09,61.24l-.28.15c0-.08-.11,0-.18,0l-.61,0c-.25,0-.39.11-.5.08L58,61.43l-.79-.14-.79-.15a7,7,0,0,0-1.93.08,3.85,3.85,0,0,0-.9.36l-.67.79a6.19,6.19,0,0,0-.72,1.43l-.17.36-.15.61-.24.93,0,.47-.11.32-.07.75-1,.5-.64.28-.71.34-1,.32a5.15,5.15,0,0,1-1,.07l-.39-.07-.25-.14.39-.47.43-.57.25-.58c.09-.28.19-.57.28-.86v-.35l-.07-.15-.36.54-.36.36-.92.58-.53.36-.64.4-1.12.46a2.61,2.61,0,0,1-1,.07l-.47,0-.23-.11.37-.42.21-.32c.1-.15.18-.3.26-.44l.21-.47.22-.64.07-.22c0-.09,0-.18.07-.26a2.86,2.86,0,0,1-.07-.28c-.07.13-.15.25-.24.39a5,5,0,0,1-.53.62l-.73.47-3.36,1.69.17-.36c.08-.22.18-.36.15-.43l.07-.4v-.71l-.08-.68a1,1,0,0,0-.82-.75c-.36,0-.83.32-1.54,1a5.45,5.45,0,0,0-.89,1.08l-.61,1.11-.39,1-.11.32-.07.4,0,.43A28.53,28.53,0,0,1,30.91,72a33.08,33.08,0,0,1-3.75,1.27,47.61,47.61,0,0,1-6.69,1.3,38.06,38.06,0,0,1-4.65.19,17.75,17.75,0,0,1-8.21-2.59A5.13,5.13,0,0,1,5.3,69.29,4.5,4.5,0,0,1,5.24,68,5.64,5.64,0,0,1,5.7,66.2l.18-.36a10.33,10.33,0,0,1,9.92-3.92l3.6.7,1.65.25.86.11,1.5.14H25a14.44,14.44,0,0,0,6-1.59,10.83,10.83,0,0,0,2.65-1.86A18,18,0,0,1,30.6,61.2,17.59,17.59,0,0,1,26,62.29l-1,0-1.4-.1L22,61.94l-1.36-.21-1-.14c-.54,0-1-.15-1.33-.14L14.71,61a11.6,11.6,0,0,0-5.79,1.48c-2.3,1.32-4.84,3.89-5,6.75A5.11,5.11,0,0,0,4,70.77a6,6,0,0,0,2.42,3.3,15.25,15.25,0,0,0,8,2.78l1.4.1a7.71,7.71,0,0,0,1.36,0l1.39-.07,1.22-.08a34.27,34.27,0,0,0,5.3-1c1.46-.47,3.21-1.08,5.14-1.87s2.36-1,3-1.33A28.05,28.05,0,0,0,36,71a5.48,5.48,0,0,0,2.4-.58,14.32,14.32,0,0,0,2.18-1l.28-.14.15-.07a2.44,2.44,0,0,0,1,.71,2.73,2.73,0,0,0,1,.18,4.61,4.61,0,0,0,1.59-.23l.49-.1.38-.11a1.94,1.94,0,0,0,1.69,1.22,5.22,5.22,0,0,0,1.11-.11l1.21-.61.08,0,.85-.43L51.2,69l0,1.68.18.9.18.89,0,.07c0-.1.1-.14.07-.21l-.08-1.22v-.36l.07-.39v-.9l0-.82.89-.72.82-.68,2.39-2L57,64.44,58,63.9A16.73,16.73,0,0,1,60.28,63l.14-.25.18-.36.32-1,.07-.4A.08.08,0,0,1,61,61C60.63,61.06,60.42,61.17,60.09,61.24ZM37.67,68.31c0,.1-.14.25-.5.43a3.84,3.84,0,0,1-1.22.07c-.46,0-.61-.14-.53-.35a1.78,1.78,0,0,1,.67-.79,1.56,1.56,0,0,1,.9-.54.79.79,0,0,1,.5.46l.18.36Zm17-3.8-.89.72-1.15.93-.71.54,0-.07v-.36l.07-.39,0-.29.18-.36.17-.53.29-.5a2,2,0,0,1,1.72-.87,1.28,1.28,0,0,1,.75-.11l.57.07a3.39,3.39,0,0,1,.64,0C55.77,63.69,55.23,64.05,54.66,64.51Z"/><path class="cls-2" d="M38.15,72.27a3.05,3.05,0,0,1,1.61-.53,7.27,7.27,0,0,0,1.68-.39l.08.08,0,.57-.07.68a1.14,1.14,0,0,1-.25.57,3.68,3.68,0,0,1-1.58.51L38.6,74a2.34,2.34,0,0,0-.57.17.49.49,0,0,1-.15-.09l0-.17v-.31l0-.4A.86.86,0,0,1,38,72.8,1.11,1.11,0,0,1,38.15,72.27Z"/><path class="cls-2" d="M38.46,62.73c0,.22-.17.5-.52.84a2.2,2.2,0,0,0-.6.73l-.07-.06L37,63.73l-.24-.64a1.9,1.9,0,0,1-.11-.58c0-.18.17-.45.51-.82l.4-.41a.87.87,0,0,0,.2-.28.13.13,0,0,1,.09,0l.09.15.12.28.15.38a2.3,2.3,0,0,1,.1.35A1.74,1.74,0,0,1,38.46,62.73Z"/><path class="cls-2" d="M47.7,63.5q0,.33-.48.87a2.58,2.58,0,0,0-.57.78l-.07-.06-.27-.5L46,64a2.08,2.08,0,0,1-.14-.59c0-.18.14-.46.47-.85l.38-.45a.91.91,0,0,0,.18-.29l.1,0,.09.15.14.28.17.37a1.89,1.89,0,0,1,.13.35A2.1,2.1,0,0,1,47.7,63.5Z"/><path class="cls-2" d="M56,68.89a1.29,1.29,0,0,1-.24.93,2.13,2.13,0,0,0-.34.85l-.09,0-.37-.41-.4-.52a2.18,2.18,0,0,1-.28-.51,1.53,1.53,0,0,1,.24-.9l.25-.5a1,1,0,0,0,.1-.31.16.16,0,0,1,.1,0l.12.11.2.23.24.31a1.37,1.37,0,0,1,.2.29A2,2,0,0,1,56,68.89Z"/><path class="cls-1" d="M39.27,79.93a3.46,3.46,0,0,1-.21.75,3.55,3.55,0,0,1-.38.69,2,2,0,0,1-.49.48,2.06,2.06,0,0,1-.61.28c-.51.15-.84,0-1.07-.63a6.59,6.59,0,0,1-.17-1.78,5.14,5.14,0,0,1,.09-.83,4.11,4.11,0,0,1,.2-.59,4.64,4.64,0,0,1,.43-.78c.2-.31.38-.58.52-.77a2.24,2.24,0,0,0,.13-.19,3.09,3.09,0,0,1,.82-.72l.28-.36.63-1.18c-.08.21-.16.44-.26.68s-.33.69-.49,1l-.49.45-.35.48-.32.45L36.9,78.4a3.34,3.34,0,0,0-.3,1.08l.17,1.12.19.6.45.28a2.82,2.82,0,0,0,.71-.18,2.39,2.39,0,0,0,.51-.27,1.07,1.07,0,0,0,.31-.52,1.05,1.05,0,0,0-.08-.68.94.94,0,0,1-.51,0,.91.91,0,0,1-.49-.38,1.71,1.71,0,0,1-.13-.85,2,2,0,0,1,.14-.5,2.64,2.64,0,0,1,.52-.71l.25-.26a1,1,0,0,1,.29.08,1,1,0,0,1,.21.11l.08.08-.1.38-.24.25-.18-.31c-.17,0-.17,0-.26.07a1.29,1.29,0,0,0-.26.29c-.19.28-.42.81-.19,1,0,0,.15.15.47.1a1.2,1.2,0,0,1,.52.29A1.09,1.09,0,0,1,39.27,79.93Z"/><path class="cls-1" d="M51.31,60.12a4.2,4.2,0,0,1-.33.55,3.49,3.49,0,0,1-.39.49,1.68,1.68,0,0,1-1.35.69c-.66-.12-.94-1-1-1a3.18,3.18,0,0,1,0-.47,3.32,3.32,0,0,1,0-.48,4.62,4.62,0,0,1,.21-.58,6,6,0,0,1,.36-.68,5.73,5.73,0,0,1,.36-.52c.22-.28.4-.47.49-.57a23.86,23.86,0,0,0,1.94-2.13l.27-.36-.27.36-.26.35-1.58,1.9-.45.61-.32.49a2.63,2.63,0,0,0-.4,1,1,1,0,0,0,0,.47,1.13,1.13,0,0,0,.17.48A.92.92,0,0,0,49,61a1,1,0,0,0,.88,0,2.14,2.14,0,0,0,.49-.27,2.38,2.38,0,0,0,.51-.54,1.4,1.4,0,0,0,.24-.44,1,1,0,0,0,.08-.29.94.94,0,0,0-.12-.26.44.44,0,0,0-.14-.16.47.47,0,0,0-.33,0,1.07,1.07,0,0,0-.32.18.8.8,0,0,0-.27.36l.36.15-.13.36-.32-.11.09-.4c.1-.41.14-.54.16-.6a2.21,2.21,0,0,1,.2-.49.73.73,0,0,1,.39-.34.57.57,0,0,1,.4,0,1,1,0,0,1,.42.47.94.94,0,0,1,0,.68,2.46,2.46,0,0,1-.09.34A3.57,3.57,0,0,1,51.31,60.12Z"/><path class="cls-1" d="M18.14,71.39a3,3,0,0,1-1.34.43A1.73,1.73,0,0,1,15.2,71a2.4,2.4,0,0,1,0-2.14A14.2,14.2,0,0,1,16,67.27l.35-.52a6.15,6.15,0,0,1,1.22-.93,5.38,5.38,0,0,1,1.28-.55L20,65.13c1,0,1.85,0,2.43-.06.4,0,.95,0,.95,0l-.6.07-.54,0c-1.24-.14-4.08-.32-5.44,1.39a2.83,2.83,0,0,0-.2.28l-.43.8-.32.74A2.62,2.62,0,0,0,16,70.09c.24.45.75.61,1.6.58a3.43,3.43,0,0,0,1.23-.37,2.62,2.62,0,0,0,1-.85,3.17,3.17,0,0,0,.21-.37l.14-.79-.38.11-.52-.2-.24-.45.1-.34.11-.34a2.94,2.94,0,0,1,.24-.21c.21-.17.32-.23.49-.39l.15-.16a.76.76,0,0,1,.51-.12l.17.33.2.9-.26.85a9.47,9.47,0,0,1-.59,1,8.87,8.87,0,0,1-.84,1.08c-.07.07-.16.17-.29.28A6,6,0,0,1,18.14,71.39Z"/><rect class="cls-1" x="20.65" y="65.41" width="0.52" height="0.52" transform="translate(-14.02 6.26) rotate(-12.79)"/><path class="cls-1" d="M52.25,37.5l-.07-.07L49,36.67l-3.27-.76-.46.08a1.19,1.19,0,0,0-.45.35l3.2.69,3.21.83.53,0A1,1,0,0,0,52.25,37.5Z"/><path class="cls-1" d="M26,35.53a.62.62,0,0,1,.29-.59.68.68,0,0,1,.52-.06,2.93,2.93,0,0,1,.27.19,2.54,2.54,0,0,1,.67,1.23,4.07,4.07,0,0,1,.15.48A1.55,1.55,0,0,1,28,37a2.43,2.43,0,0,1,.09.65,2.64,2.64,0,0,0,.21-.39,4,4,0,0,0,.25-1q0-.14,0-.21a.52.52,0,0,1,0-.19.56.56,0,0,1,.11-.18l.29-.34a.72.72,0,0,1,.27-.23.68.68,0,0,1,.55,0,.74.74,0,0,1,.27.26l.11.25,0,.32-.08.46a.63.63,0,0,0-.17-.36.62.62,0,0,0-.22-.16.8.8,0,0,0-.23,0,.87.87,0,0,0-.24.07l-.17.1a.69.69,0,0,0-.24.33,2.64,2.64,0,0,0-.09.31c-.22.78-.24,1.11-.44,1.73,0,.09-.08.23-.15.4l-.1.14-.23,0-.05-.16c-.07-.21-.14-.43-.2-.66s-.18-.6-.25-.89L27.28,37a.65.65,0,0,0-.28-.34.54.54,0,0,0-.36-.07,1.06,1.06,0,0,1-.35-.26.91.91,0,0,1-.18-.3.57.57,0,0,1-.09-.23A.93.93,0,0,1,26,35.53Z"/><path class="cls-1" d="M31.83,43.2c-.06,0-.12,0-.2,0a1.93,1.93,0,0,1-.32-.5c-.2-.46-.35-.69-.45-.68a.51.51,0,0,0-.27.2L30.23,45a30.31,30.31,0,0,1-.48,3.53A5.2,5.2,0,0,1,28.6,51a7.13,7.13,0,0,1-2.27,1.62,10.23,10.23,0,0,1-3,.95,7.32,7.32,0,0,1-2.07.06,4.77,4.77,0,0,1,1.74-1,17.58,17.58,0,0,0,2.82-1.54,5.59,5.59,0,0,0,1.88-2.2l.56-1.3a11.51,11.51,0,0,0,.42-1.32c.1-.41.2-.86.29-1.36s.15-.88.23-1.44l.2-1.49c0-.36.08-.55.09-.58s.06-.33.12-.57c.13-.71.42-1.11.87-1.17.29,0,.56.12.83.49a3,3,0,0,1,.5,1.25l.05.46a1.6,1.6,0,0,1,0,.48A2.66,2.66,0,0,1,31.83,43.2Z"/><path class="cls-1" d="M47,46.9h0Z"/><path class="cls-1" d="M52.52,40.67l0,.43a1.88,1.88,0,0,1-.06.46,1.1,1.1,0,0,1-.17.56l-.5.7-.74.94a19.53,19.53,0,0,1-2.26,2.37,3,3,0,0,1-1.7.76H46.5a2.35,2.35,0,0,1-2-1.41,11.27,11.27,0,0,1-.86-3c-.18-1.2-.35-1.79-.51-1.79a.32.32,0,0,0-.24.1,13.89,13.89,0,0,0-.45,2.83,19.17,19.17,0,0,1-1,4.48,6.56,6.56,0,0,1-2.28,3A7.7,7.7,0,0,1,36,52.52l-1.65.24-.82.1a1.6,1.6,0,0,1-1.09-1.26,1.72,1.72,0,0,1,.44-1.34c.35-.77.84-1.7,1.19-1.62s.07,1.85.89,2.37,3-.72,4.15-2.08A9.69,9.69,0,0,0,41,44.84a32.72,32.72,0,0,0,.86-4.7c.23-1.88.51-2.89.82-3l.51-.22A16.45,16.45,0,0,0,43.79,39a17.11,17.11,0,0,0,2.73,4.88h.57v0h0a1.63,1.63,0,0,0,.82-.23,1.46,1.46,0,0,0,.65-.94l-.11-.27a.51.51,0,0,0-.18-.26,1,1,0,0,1-.14-.62,2.16,2.16,0,0,1,.19-.85,1,1,0,0,1,.69-.53.46.46,0,0,1,.14.14l.17.21a1.54,1.54,0,0,0,.71.16,1.11,1.11,0,0,0,.69-.24,9.28,9.28,0,0,0,1-.83l.21-.22H52c.07,0,.17.08.31.24A1.45,1.45,0,0,1,52.52,40.67Z"/><path class="cls-1" d="M24.79,43.54q0,.26-.06.57a5.33,5.33,0,0,1-.13.68,8.41,8.41,0,0,1-1.22,2.83,1.79,1.79,0,0,1-2,.87q-.24,0-.81.63a2.36,2.36,0,0,1-1.09.8l-.78.11L18.2,50,18,49.9a1,1,0,0,1-.38-.22.56.56,0,0,0-.36-.17,6.69,6.69,0,0,1-.8.73,2.67,2.67,0,0,1-.64.41,2.65,2.65,0,0,1-1.44,0l-1.08-.7a2.54,2.54,0,0,0-.83-.36l-.34-.08a1.27,1.27,0,0,0-.48,0,3.53,3.53,0,0,0-1,.29,2.08,2.08,0,0,0-1,.93c-.2.41-.35.61-.46.6S9,51.15,9,51a3,3,0,0,1,.1-.76,6.26,6.26,0,0,1,.59-1.48,4.45,4.45,0,0,1,.94-1.24,2.85,2.85,0,0,1,1.21-.67,2.73,2.73,0,0,1,1.3,0,3.86,3.86,0,0,1,1,.42l.45.26.52.24.17,0a3.05,3.05,0,0,0,.87.13,1.47,1.47,0,0,0,.55-.09,4.94,4.94,0,0,0,.5-.26,2,2,0,0,0,.5-.46,1.87,1.87,0,0,0,.32-.71c.13-.53.28-.8.46-.82l.18.45c-.12.89,0,1.37.29,1.45a1.74,1.74,0,0,0,.85-.09,1.31,1.31,0,0,0,.84-.57,6.54,6.54,0,0,0,.6-1.24,8.67,8.67,0,0,1,.39-.9c.06-.07.21-.1.46-.09l-.11.78c-.13.53,0,.83.28.91a1.34,1.34,0,0,0,.64-.08,1.37,1.37,0,0,0,.71-.53,2.63,2.63,0,0,0,.43-1l.08-.29,0-.29.05-.23.05-.18a1.29,1.29,0,0,1,.21-.54.54.54,0,0,1,.35-.14C24.8,43,24.82,43.16,24.79,43.54Z"/><path class="cls-2" d="M9.61,43.8c.15-.29.73-.57,1.73-.83a6.52,6.52,0,0,0,1.82-.66l.09.11.08.8,0,1A1.88,1.88,0,0,1,13,45a3.63,3.63,0,0,1-1.7.81l-1.15.35a2,2,0,0,0-.62.26.34.34,0,0,1-.16-.11l-.05-.24,0-.43v-.58a1.7,1.7,0,0,1,.07-.51A1.76,1.76,0,0,1,9.61,43.8Z"/><path class="cls-1" d="M53.7,0a23.56,23.56,0,0,0-.5,6.1c.5,12.1,9.1,20.2,12,22.8A37.59,37.59,0,0,1,78.9,47.1a41,41,0,0,1,1.9,11.2,48.57,48.57,0,0,1-1.6,14.3c-1.3,5-4.3,16.8-14.8,24.5a36.59,36.59,0,0,1-9.9,4.9,42.84,42.84,0,0,1-20.6,1.5l1.2-.5a37.12,37.12,0,0,0,25.2-5.6A38.59,38.59,0,0,0,75,78.8a42.65,42.65,0,0,0,2.6-20.1A41,41,0,0,0,65.3,37.4C54.7,30,48.6,19.1,50.2,8.9A21.75,21.75,0,0,1,53.7,0Z"/><path class="cls-1" d="M51,0a25.33,25.33,0,0,0-6.24,12.76,23.64,23.64,0,0,0,1.61,13.91c4.75,10.24,15.94,12.74,17.37,13a34.76,34.76,0,0,1-9.48-9.11,31.28,31.28,0,0,1-5.35-11.75A31.16,31.16,0,0,1,51,0Z"/><path class="cls-1" d="M68.7,48.7s-4.1,4.9-1.9,7.4,7.2,7.5,6.3,10.3c-.2.7-.5,1.9-.2,2.1s1.4-.7,1.6-.9a7.53,7.53,0,0,0,2-5,7.36,7.36,0,0,0-.2-3.2,17,17,0,0,0-.8-1.8,15.27,15.27,0,0,0-2.5-3c-2.1-2-2.5-2.1-3.2-3.1A7.14,7.14,0,0,1,68.7,48.7Z"/><path class="cls-1" d="M72.3,76.9c1.6-2.2,3.1-5,2.1-7.5-.3-.9-.6-.9-2.8-3.2-5.1-5.4-4.9-7.2-4.8-7.8s.6-1.5.4-1.7-1.3.4-1.8.9a6.9,6.9,0,0,0-2.3,5.1,6.45,6.45,0,0,0,.3,3.2,11,11,0,0,0,.9,1.9,15.79,15.79,0,0,0,3,3c2.4,2.1,2.9,2.2,3.7,3.3A6.22,6.22,0,0,1,72.3,76.9Z"/><path class="cls-1" d="M70.8,70.5c-.6,1.4-2.4,4.8-5.7,5.9a14.58,14.58,0,0,1-5,.6c-1.9-.2-2.5-.6-3.8-.4a6.47,6.47,0,0,0-3.8,2.8A129.46,129.46,0,0,1,40.7,92.9c-3,2.9-5.8,5.5-10.1,6.1a14.76,14.76,0,0,1-8.9-1.8,9.67,9.67,0,0,0,4.8,4.7c3.5,1.5,6.8.3,8.4-.3,3.1-1.2,4.4-2.9,9.8-8.7,9.2-10.1,10.9-11.2,13.1-11.2s4.6,1.5,7.3.2a7.08,7.08,0,0,0,3.2-3.2A14.69,14.69,0,0,0,70.8,70.5Z"/><path class="cls-2" d="M63.18,45q-.13.56.72,1.77a4.86,4.86,0,0,1,.9,1.65l.16-.06.62-.72.66-1a2.88,2.88,0,0,0,.41-.93A3.24,3.24,0,0,0,65.94,44l-.63-1a2,2,0,0,1-.28-.6.44.44,0,0,0-.2,0l-.21.21-.32.4-.41.56a2.61,2.61,0,0,0-.31.53A3,3,0,0,0,63.18,45Z"/><path class="cls-2" d="M60.7,49.36q-.14.54.72,1.77a4.94,4.94,0,0,1,.9,1.64l.16-.05L63.1,52l.66-.94a3,3,0,0,0,.41-.94,3.24,3.24,0,0,0-.71-1.72l-.62-1a1.71,1.71,0,0,1-.29-.6.43.43,0,0,0-.2,0l-.21.2-.32.41-.41.55a3,3,0,0,0-.31.54A2.87,2.87,0,0,0,60.7,49.36Z"/><path class="cls-1" d="M50.35,96.41c.31-3.68,3.71-3.1,5.76-4.79-1.71,0-2.81-.43-2.88-2.44,1.55,1.66,2.84.9,4.08-.18.75,2.42.1,4-2.15,4.77A12.11,12.11,0,0,0,50.35,96.41Z"/></g></g></svg>