<svg xmlns="http://www.w3.org/2000/svg" viewBox="0 0 80.83 104.12"><defs><style>.cls-1{fill:#d7ddf7;}.cls-2{fill:#fff;}.cls-3{fill:#2b4eff;}</style></defs><g id="Layer_2" data-name="Layer 2"><g id="Layer_1-2" data-name="Layer 1"><path class="cls-1" d="M30.9,87.8a.78.78,0,0,1,.24-.78.8.8,0,0,1,.61-.17,2,2,0,0,1,.38.18,3.2,3.2,0,0,1,1,1.35c.07.13.17.32.28.55s.09.18.13.28a3.29,3.29,0,0,1,.24.77,3,3,0,0,0,.18-.52,4.46,4.46,0,0,0,.11-1.22V88a.68.68,0,0,1,0-.25.58.58,0,0,1,.09-.22L34.5,87a.85.85,0,0,1,1-.45.78.78,0,0,1,.37.26l.19.29.1.38v.56a.93.93,0,0,0-.28-.4.86.86,0,0,0-.31-.15.76.76,0,0,0-.27,0,.81.81,0,0,0-.28.13,1.24,1.24,0,0,0-.19.16.93.93,0,0,0-.23.44c0,.08,0,.22,0,.4-.1,1-.07,1.39-.19,2.17,0,.12-.05.3-.1.52l-.09.19h-.29l-.09-.19c-.13-.24-.25-.49-.38-.75s-.33-.7-.47-1l-.19-.29a.74.74,0,0,0-.4-.35.81.81,0,0,0-.45,0,1.11,1.11,0,0,1-.48-.24,1.24,1.24,0,0,1-.28-.32,1.08,1.08,0,0,1-.15-.27A.94.94,0,0,1,30.9,87.8Z"/><path class="cls-1" d="M31.32,26.37C4.68,32.58-6.39,62.27,7.6,85.18A29,29,0,0,0,11,89.73a32.73,32.73,0,0,0,8.91,7.06c0,.11.11.1,0,.11a27.78,27.78,0,0,1-9.83-6.4C1.55,82.18-1.44,69.27.63,57.73A37.49,37.49,0,0,1,11,37,39.28,39.28,0,0,1,31.31,26.16C31.41,26.16,31.42,26.26,31.32,26.37Z"/><path class="cls-2" d="M46.13,71.93h-.07l-2,.85-2.12.91-.22.24a.7.7,0,0,0-.11.37l2-.92,2.11-.85.29-.22A.7.7,0,0,0,46.13,71.93Z"/><path class="cls-1" d="M60.09,61.24l-.28.15c0-.08-.11,0-.18,0l-.61,0c-.25,0-.39.11-.5.08L58,61.43l-.79-.15-.79-.14a6.93,6.93,0,0,0-1.93.08,3.85,3.85,0,0,0-.9.36l-.67.79a5.49,5.49,0,0,0-.72,1.43l-.17.36-.15.61-.24.93,0,.47-.11.32-.07.75-1,.5-.64.28-.71.34-1,.32a5.15,5.15,0,0,1-1,.07l-.39-.07-.25-.14.39-.47.43-.57.25-.58c.09-.28.19-.57.28-.86v-.35l-.07-.15-.36.54-.36.36-.92.58-.53.36-.64.4-1.12.46a2.8,2.8,0,0,1-1,.07l-.47,0-.23-.11.37-.42.21-.32c.1-.15.18-.3.26-.44l.21-.47.22-.64.07-.22a2,2,0,0,1,.07-.26c0-.1,0-.19-.07-.28-.07.12-.15.25-.24.38a4.48,4.48,0,0,1-.53.63l-.73.46L38.39,68.3l.17-.35c.07-.22.18-.36.15-.43l.07-.4v-.71l-.07-.68a1,1,0,0,0-.82-.75c-.36,0-.83.32-1.54,1a5.69,5.69,0,0,0-.89,1.07l-.61,1.12-.39,1-.11.32-.07.4,0,.42A27.12,27.12,0,0,1,30.91,72a33.08,33.08,0,0,1-3.75,1.27,47.61,47.61,0,0,1-6.69,1.3,38.06,38.06,0,0,1-4.65.19,17.87,17.87,0,0,1-8.21-2.59A5.13,5.13,0,0,1,5.3,69.29,4.54,4.54,0,0,1,5.24,68,5.65,5.65,0,0,1,5.7,66.2l.18-.36a10.33,10.33,0,0,1,9.92-3.92l3.6.7,1.65.25.86.11,1.5.13H25a14.44,14.44,0,0,0,6-1.59,10.61,10.61,0,0,0,2.65-1.87A17.25,17.25,0,0,1,30.6,61.2,17.59,17.59,0,0,1,26,62.29l-1,0-1.4-.1L22,61.94l-1.36-.21-1-.15c-.54,0-1-.14-1.33-.14L14.71,61a11.65,11.65,0,0,0-5.8,1.48c-2.29,1.32-4.84,3.89-5,6.74A5.15,5.15,0,0,0,4,70.77a6,6,0,0,0,2.42,3.3,15.15,15.15,0,0,0,8,2.77l1.4.11a8.8,8.8,0,0,0,1.36,0l1.39-.07,1.22-.08a33.92,33.92,0,0,0,5.29-1c1.47-.47,3.22-1.08,5.15-1.87s2.36-1,3-1.33A28.05,28.05,0,0,0,36,71a5.42,5.42,0,0,0,2.39-.58,14.07,14.07,0,0,0,2.19-1l.28-.14.14-.07a2.59,2.59,0,0,0,1,.71,2.69,2.69,0,0,0,1,.18,4.61,4.61,0,0,0,1.59-.23l.49-.1.38-.11a1.94,1.94,0,0,0,1.69,1.22,5.22,5.22,0,0,0,1.11-.11l1.21-.61.08,0,.85-.43L51.2,69l0,1.68.18.9.18.89,0,.07c0-.11.1-.14.07-.21l-.08-1.22v-.36l.07-.39v-.9l0-.82.89-.72.82-.68,2.39-2L57,64.43,58,63.9A16.73,16.73,0,0,1,60.28,63l.14-.25.18-.36.32-1,.07-.39A.08.08,0,0,1,61,61C60.63,61.06,60.41,61.17,60.09,61.24ZM37.67,68.31c0,.1-.14.25-.5.43a3.84,3.84,0,0,1-1.22.07c-.46,0-.61-.14-.53-.35a1.78,1.78,0,0,1,.67-.79,1.56,1.56,0,0,1,.9-.54.79.79,0,0,1,.5.46l.18.36Zm17-3.8-.89.72-1.15.93-.71.54,0-.07v-.36l.07-.39,0-.29.18-.36.17-.53.29-.51a2,2,0,0,1,1.72-.86,1.28,1.28,0,0,1,.75-.11l.57.07a3.39,3.39,0,0,1,.64,0C55.77,63.69,55.23,64.05,54.66,64.51Z"/><path class="cls-3" d="M37.58,71.59a2.76,2.76,0,0,1,1.71-.43A5.39,5.39,0,0,0,41,70.9l.07.12-.08.73-.21.85a1.77,1.77,0,0,1-.38.69c-.16.19-.72.32-1.67.41l-1.09.1a2,2,0,0,0-.6.12.51.51,0,0,1-.13-.12v-.23l.06-.39.12-.51a1.29,1.29,0,0,1,.16-.44A1.73,1.73,0,0,1,37.58,71.59Z"/><path class="cls-3" d="M37.83,61.77a1.28,1.28,0,0,1,0,1,2.27,2.27,0,0,0-.16.94l-.09,0-.46-.33-.52-.44a2,2,0,0,1-.39-.45,1.53,1.53,0,0,1,0-1l.14-.56a.9.9,0,0,0,0-.34h.11l.15.09.24.19.32.26a2.06,2.06,0,0,1,.26.25A1.7,1.7,0,0,1,37.83,61.77Z"/><path class="cls-3" d="M47.54,63.07c0,.22-.19.49-.56.82a2.28,2.28,0,0,0-.64.72l-.07-.06L46.05,64l-.21-.65a2.3,2.3,0,0,1-.09-.6c0-.18.19-.44.56-.8l.42-.41a1,1,0,0,0,.21-.27.15.15,0,0,1,.09.06l.08.15.11.29.13.39a1.19,1.19,0,0,1,.09.36A2.08,2.08,0,0,1,47.54,63.07Z"/><path class="cls-3" d="M58.62,66.8c0,.21-.17.48-.52.8a2.54,2.54,0,0,0-.6.7l-.06,0-.23-.51L57,67.12a2.09,2.09,0,0,1-.09-.57q0-.26.51-.78l.39-.4a.77.77,0,0,0,.19-.26.18.18,0,0,1,.1,0l.08.15.11.27.14.38a2.14,2.14,0,0,1,.09.34A1.88,1.88,0,0,1,58.62,66.8Z"/><path class="cls-1" d="M39.27,79.93a3.46,3.46,0,0,1-.21.75,3.55,3.55,0,0,1-.38.69,2,2,0,0,1-.49.48,2.06,2.06,0,0,1-.61.28c-.51.15-.84,0-1.07-.63a6.59,6.59,0,0,1-.17-1.78,5.14,5.14,0,0,1,.09-.83,4.11,4.11,0,0,1,.2-.59,4.64,4.64,0,0,1,.43-.78c.2-.31.38-.58.52-.77a2.24,2.24,0,0,0,.13-.19,3.09,3.09,0,0,1,.82-.72l.28-.36.63-1.18c-.08.21-.16.44-.26.68s-.33.69-.49,1l-.49.45-.35.48-.32.45L36.9,78.4a3.34,3.34,0,0,0-.3,1.08l.17,1.12.19.6.45.28a2.82,2.82,0,0,0,.71-.18,2.39,2.39,0,0,0,.51-.27,1.07,1.07,0,0,0,.31-.52,1.05,1.05,0,0,0-.08-.68.94.94,0,0,1-.51,0,.91.91,0,0,1-.49-.38,1.71,1.71,0,0,1-.13-.85,2,2,0,0,1,.14-.5,2.64,2.64,0,0,1,.52-.71l.25-.26a1,1,0,0,1,.29.08,1,1,0,0,1,.21.11l.08.08-.1.38-.24.25-.18-.31c-.17,0-.17,0-.26.07a1.29,1.29,0,0,0-.26.29c-.19.28-.42.81-.19,1,0,0,.15.15.47.1a1.2,1.2,0,0,1,.52.29A1.09,1.09,0,0,1,39.27,79.93Z"/><path class="cls-1" d="M51.31,60.12a4.2,4.2,0,0,1-.33.55,3.49,3.49,0,0,1-.39.49,1.68,1.68,0,0,1-1.35.69c-.66-.12-.94-1-1-1a3.18,3.18,0,0,1,0-.47,3.32,3.32,0,0,1,0-.48,4.62,4.62,0,0,1,.21-.58,6,6,0,0,1,.36-.68,5.73,5.73,0,0,1,.36-.52c.22-.28.4-.47.49-.57a23.86,23.86,0,0,0,1.94-2.13l.27-.36-.27.36-.26.35-1.58,1.9-.45.61-.32.49a2.63,2.63,0,0,0-.4,1,1,1,0,0,0,0,.47,1.13,1.13,0,0,0,.17.48A.92.92,0,0,0,49,61a1,1,0,0,0,.88,0,2.14,2.14,0,0,0,.49-.27,2.38,2.38,0,0,0,.51-.54,1.4,1.4,0,0,0,.24-.44,1,1,0,0,0,.08-.29.94.94,0,0,0-.12-.26.44.44,0,0,0-.14-.16.47.47,0,0,0-.33,0,1.07,1.07,0,0,0-.32.18.8.8,0,0,0-.27.36l.36.15-.13.36-.32-.11.09-.4c.1-.41.14-.54.16-.6a2.21,2.21,0,0,1,.2-.49.73.73,0,0,1,.39-.34.57.57,0,0,1,.4,0,1,1,0,0,1,.42.47.94.94,0,0,1,0,.68,2.46,2.46,0,0,1-.09.34A3.57,3.57,0,0,1,51.31,60.12Z"/><path class="cls-1" d="M18.14,71.39a3,3,0,0,1-1.34.43A1.73,1.73,0,0,1,15.2,71a2.4,2.4,0,0,1,0-2.14A14.2,14.2,0,0,1,16,67.27l.35-.52a6.15,6.15,0,0,1,1.22-.93,5.38,5.38,0,0,1,1.28-.55L20,65.13c1,0,1.85,0,2.43-.06.4,0,.95,0,.95,0l-.6.07-.54,0c-1.24-.14-4.08-.32-5.44,1.39a2.83,2.83,0,0,0-.2.28l-.43.8-.32.74A2.62,2.62,0,0,0,16,70.09c.24.45.75.61,1.6.58a3.43,3.43,0,0,0,1.23-.37,2.62,2.62,0,0,0,1-.85,3.17,3.17,0,0,0,.21-.37l.14-.79-.38.11-.52-.2-.24-.45.1-.34.11-.34a2.94,2.94,0,0,1,.24-.21c.21-.17.32-.23.49-.39l.15-.16a.76.76,0,0,1,.51-.12l.17.33.2.9-.26.85a9.47,9.47,0,0,1-.59,1,8.87,8.87,0,0,1-.84,1.08c-.07.07-.16.17-.29.28A6,6,0,0,1,18.14,71.39Z"/><rect class="cls-1" x="20.65" y="65.41" width="0.52" height="0.52" transform="translate(-14.02 6.26) rotate(-12.79)"/><path class="cls-1" d="M52.25,37.5l-.07-.07L49,36.67l-3.27-.76-.46.08a1.19,1.19,0,0,0-.45.35l3.2.69,3.21.83.53,0A1,1,0,0,0,52.25,37.5Z"/><path class="cls-1" d="M26,35.53a.62.62,0,0,1,.29-.59.68.68,0,0,1,.52-.06,2.93,2.93,0,0,1,.27.19,2.54,2.54,0,0,1,.67,1.23,4.07,4.07,0,0,1,.15.48A1.55,1.55,0,0,1,28,37a2.43,2.43,0,0,1,.09.65,2.64,2.64,0,0,0,.21-.39,4,4,0,0,0,.25-1q0-.14,0-.21a.52.52,0,0,1,0-.19.56.56,0,0,1,.11-.18l.29-.34a.72.72,0,0,1,.27-.23.68.68,0,0,1,.55,0,.74.74,0,0,1,.27.26l.11.25,0,.32-.08.46a.63.63,0,0,0-.17-.36.62.62,0,0,0-.22-.16.8.8,0,0,0-.23,0,.87.87,0,0,0-.24.07l-.17.1a.69.69,0,0,0-.24.33,2.64,2.64,0,0,0-.09.31c-.22.78-.24,1.11-.44,1.73,0,.09-.08.23-.15.4l-.1.14-.23,0-.05-.16c-.07-.21-.14-.43-.2-.66s-.18-.6-.25-.89L27.28,37a.65.65,0,0,0-.28-.34.54.54,0,0,0-.36-.07,1.06,1.06,0,0,1-.35-.26.91.91,0,0,1-.18-.3.57.57,0,0,1-.09-.23A.93.93,0,0,1,26,35.53Z"/><path class="cls-1" d="M32.92,43.91c-.08.05-.16,0-.23-.08a2.31,2.31,0,0,1-.3-.66c-.15-.59-.29-.9-.4-.91a.67.67,0,0,0-.37.19l-1,3.36A39.21,39.21,0,0,1,29.39,50a6.36,6.36,0,0,1-1.85,2.69,8.72,8.72,0,0,1-3,1.52,12.51,12.51,0,0,1-3.77.57,9.46,9.46,0,0,1-2.5-.33,5.61,5.61,0,0,1,2.29-.89,21.36,21.36,0,0,0,3.69-1.32,6.71,6.71,0,0,0,2.68-2.29l.92-1.44c.25-.44.51-.94.77-1.52s.39-1,.6-1.57.35-1,.56-1.69l.52-1.76c.13-.42.21-.65.22-.68s.14-.38.26-.66c.29-.83.72-1.25,1.27-1.25.35,0,.65.26.9.76a3.63,3.63,0,0,1,.36,1.59l0,.57a2.65,2.65,0,0,1-.07.59A3.24,3.24,0,0,1,32.92,43.91Z"/><path class="cls-1" d="M46.94,46.9h0Z"/><path class="cls-1" d="M52.52,40.66l0,.44a1.56,1.56,0,0,1-.07.46,1.06,1.06,0,0,1-.16.56l-.5.7-.74.94a19.53,19.53,0,0,1-2.26,2.37,3,3,0,0,1-1.7.76H46.5a2.35,2.35,0,0,1-2-1.41,11.27,11.27,0,0,1-.86-3c-.18-1.2-.35-1.79-.51-1.8a.37.37,0,0,0-.24.11,13.89,13.89,0,0,0-.45,2.83,19.17,19.17,0,0,1-1,4.48,6.56,6.56,0,0,1-2.28,3A7.76,7.76,0,0,1,36,52.52l-1.65.24-.82.1L31.89,53c-.73,0-1.12-.09-1.18-.24s.56-.39,1.67-.73a23.76,23.76,0,0,0,3.3-1.26,7.4,7.4,0,0,0,.78-.41,8.32,8.32,0,0,0,.81-.55,12,12,0,0,0,1.61-1.44A7.7,7.7,0,0,0,41,44.84a36.15,36.15,0,0,0,.85-4.7c.24-1.88.52-2.89.83-3l.51-.22c.27,0,.47.71.62,2.13a15.2,15.2,0,0,0,.69,3.5,2,2,0,0,0,2,1.38h.57v0h0a1.74,1.74,0,0,0,.82-.23,1.46,1.46,0,0,0,.65-.94l-.11-.27a.58.58,0,0,0-.18-.27.91.91,0,0,1-.14-.61,2.21,2.21,0,0,1,.19-.86,1.06,1.06,0,0,1,.69-.53.6.6,0,0,1,.14.15l.17.21a1.54,1.54,0,0,0,.71.16,1.07,1.07,0,0,0,.68-.24,8.24,8.24,0,0,0,1-.83l.21-.22H52c.07,0,.17.08.31.24A1.43,1.43,0,0,1,52.52,40.66Z"/><path class="cls-1" d="M24.05,43.83q0,.27-.06.57c0,.21-.07.44-.13.69a8.36,8.36,0,0,1-1.22,2.82,1.82,1.82,0,0,1-2,.88c-.16,0-.42.19-.8.62a2.37,2.37,0,0,1-1.09.81l-.78.11-.49-.07-.24-.06a1.2,1.2,0,0,1-.39-.23c-.15-.12-.27-.18-.35-.16a7.66,7.66,0,0,1-.8.73A2.82,2.82,0,0,1,15,51a2.83,2.83,0,0,1-1.43-.05l-1.08-.71a2.53,2.53,0,0,0-.83-.35l-.35-.08a1.21,1.21,0,0,0-.47,0,2.94,2.94,0,0,0-1,.29,2.11,2.11,0,0,0-.95.92c-.2.42-.35.62-.46.6s-.15-.13-.2-.32a3.06,3.06,0,0,1,.1-.77A6.15,6.15,0,0,1,8.9,49a4.52,4.52,0,0,1,.95-1.24,2.74,2.74,0,0,1,1.21-.67,2.61,2.61,0,0,1,1.3,0,3.25,3.25,0,0,1,1,.42l.45.25.52.24.17,0a3.48,3.48,0,0,0,.87.13,2,2,0,0,0,.55-.09,3.68,3.68,0,0,0,.5-.27,1.91,1.91,0,0,0,.49-.45,2,2,0,0,0,.33-.71c.12-.53.28-.81.46-.83l.18.46c-.12.89,0,1.37.29,1.45a2,2,0,0,0,.85-.09,1.29,1.29,0,0,0,.84-.58,6.25,6.25,0,0,0,.6-1.24,6.32,6.32,0,0,1,.39-.89c.06-.08.21-.11.46-.09l-.11.78q-.2.8.27.9a1.26,1.26,0,0,0,.65-.08,1.39,1.39,0,0,0,.71-.52,2.88,2.88,0,0,0,.43-1l.07-.29,0-.3.05-.23,0-.17a1.28,1.28,0,0,1,.22-.54.54.54,0,0,1,.35-.15C24.06,43.26,24.08,43.46,24.05,43.83Z"/><path class="cls-3" d="M8.87,44.09c.15-.28.73-.56,1.73-.83a6.3,6.3,0,0,0,1.82-.65l.09.11.08.79,0,1a2.08,2.08,0,0,1-.25.83,3.63,3.63,0,0,1-1.7.81l-1.15.34a2,2,0,0,0-.62.27.44.44,0,0,1-.16-.11l-.05-.24,0-.44v-.57a1.7,1.7,0,0,1,.07-.51A1.81,1.81,0,0,1,8.87,44.09Z"/><path class="cls-1" d="M53.7,0a23.56,23.56,0,0,0-.5,6.1c.5,12.1,9.1,20.2,12,22.8A37.59,37.59,0,0,1,78.9,47.1a41,41,0,0,1,1.9,11.2,48.57,48.57,0,0,1-1.6,14.3c-1.3,5-4.3,16.8-14.8,24.5a36.59,36.59,0,0,1-9.9,4.9,42.84,42.84,0,0,1-20.6,1.5l1.2-.5a37.12,37.12,0,0,0,25.2-5.6A38.59,38.59,0,0,0,75,78.8a42.65,42.65,0,0,0,2.6-20.1A41,41,0,0,0,65.3,37.4C54.7,30,48.6,19.1,50.2,8.9A21.75,21.75,0,0,1,53.7,0Z"/><path class="cls-1" d="M51,0a25.33,25.33,0,0,0-6.24,12.76,23.64,23.64,0,0,0,1.61,13.91c4.75,10.24,15.94,12.74,17.37,13a34.76,34.76,0,0,1-9.48-9.11,31.28,31.28,0,0,1-5.35-11.75A31.16,31.16,0,0,1,51,0Z"/><path class="cls-1" d="M68.7,48.7s-4.1,4.9-1.9,7.4,7.2,7.5,6.3,10.3c-.2.7-.5,1.9-.2,2.1s1.4-.7,1.6-.9a7.53,7.53,0,0,0,2-5,7.36,7.36,0,0,0-.2-3.2,17,17,0,0,0-.8-1.8,15.27,15.27,0,0,0-2.5-3c-2.1-2-2.5-2.1-3.2-3.1A7.14,7.14,0,0,1,68.7,48.7Z"/><path class="cls-1" d="M72.3,76.9c1.6-2.2,3.1-5,2.1-7.5-.3-.9-.6-.9-2.8-3.2-5.1-5.4-4.9-7.2-4.8-7.8s.6-1.5.4-1.7-1.3.4-1.8.9a6.9,6.9,0,0,0-2.3,5.1,6.45,6.45,0,0,0,.3,3.2,11,11,0,0,0,.9,1.9,15.79,15.79,0,0,0,3,3c2.4,2.1,2.9,2.2,3.7,3.3A6.22,6.22,0,0,1,72.3,76.9Z"/><path class="cls-1" d="M70.8,70.5c-.6,1.4-2.4,4.8-5.7,5.9a14.58,14.58,0,0,1-5,.6c-1.9-.2-2.5-.6-3.8-.4a6.47,6.47,0,0,0-3.8,2.8A129.46,129.46,0,0,1,40.7,92.9c-3,2.9-5.8,5.5-10.1,6.1a14.76,14.76,0,0,1-8.9-1.8,9.67,9.67,0,0,0,4.8,4.7c3.5,1.5,6.8.3,8.4-.3,3.1-1.2,4.4-2.9,9.8-8.7,9.2-10.1,10.9-11.2,13.1-11.2s4.6,1.5,7.3.2a7.08,7.08,0,0,0,3.2-3.2A14.69,14.69,0,0,0,70.8,70.5Z"/><path class="cls-3" d="M63.18,45q-.13.56.72,1.77a4.86,4.86,0,0,1,.9,1.65l.16-.06.62-.72.66-1a2.88,2.88,0,0,0,.41-.93A3.24,3.24,0,0,0,65.94,44l-.63-1a2,2,0,0,1-.28-.6.44.44,0,0,0-.2,0l-.21.21-.32.4-.41.56a2.61,2.61,0,0,0-.31.53A3,3,0,0,0,63.18,45Z"/><path class="cls-3" d="M60.7,49.36q-.14.54.72,1.77a4.94,4.94,0,0,1,.9,1.64l.16-.05L63.1,52l.66-.94a3,3,0,0,0,.41-.94,3.24,3.24,0,0,0-.71-1.72l-.62-1a1.71,1.71,0,0,1-.29-.6.43.43,0,0,0-.2,0l-.21.2-.32.41-.41.55a3,3,0,0,0-.31.54A2.87,2.87,0,0,0,60.7,49.36Z"/><path class="cls-1" d="M51.22,96.47c.31-3.68,3.71-3.1,5.76-4.78-1.71,0-2.82-.43-2.89-2.45,1.55,1.66,2.85.91,4.09-.18.75,2.42.09,4-2.15,4.77A12.24,12.24,0,0,0,51.22,96.47Z"/></g></g></svg>